<svg xmlns="http://www.w3.org/2000/svg" fill="none" viewBox="0 0 28 32" class="" style="width:auto;height:32px"><g clip-path="url(#svg-c15d771d05266c4e5a1f71fbbf032455__a)"><path fill="currentColor" d="M26.611 24.938a17.397 17.397 0 0 1-1.72 3.093c-.905 1.29-1.645 2.183-2.216 2.678-.885.814-1.833 1.231-2.849 1.255-.728 0-1.607-.208-2.63-.628-1.027-.42-1.97-.627-2.833-.627-.905 0-1.875.208-2.913.627-1.04.42-1.876.64-2.517.661-.973.042-1.944-.387-2.912-1.288-.619-.539-1.392-1.463-2.318-2.773-.994-1.398-1.811-3.02-2.452-4.869C.566 21.07.222 19.137.222 17.264c0-2.144.464-3.994 1.392-5.544a8.163 8.163 0 0 1 2.914-2.948 7.84 7.84 0 0 1 3.94-1.112c.774 0 1.788.24 3.048.71 1.257.471 2.064.71 2.417.71.265 0 1.161-.28 2.68-.837 1.438-.517 2.65-.731 3.644-.647 2.692.217 4.715 1.279 6.06 3.19-2.408 1.46-3.599 3.503-3.575 6.124.022 2.042.762 3.741 2.218 5.09a7.289 7.289 0 0 0 2.216 1.454c-.177.516-.365 1.01-.564 1.484ZM20.438.64c0 1.6-.585 3.095-1.75 4.478-1.407 1.644-3.108 2.594-4.952 2.444a4.983 4.983 0 0 1-.037-.606c0-1.537.668-3.18 1.856-4.525.593-.68 1.347-1.247 2.262-1.698.912-.445 1.776-.69 2.587-.733.024.214.034.428.034.64Z"></path></g><defs><clipPath id="svg-c15d771d05266c4e5a1f71fbbf032455__a"><path fill="currentColor" d="M.222 0h26.954v32H.222z"></path></clipPath></defs></svg>