<svg xmlns="http://www.w3.org/2000/svg"  viewBox="0 0 50 50" width="50px" height="50px"><path d="M 25 2 C 12.318 2 2 12.317 2 25 C 2 37.683 12.318 48 25 48 C 37.682 48 48 37.683 48 25 C 48 12.317 37.682 2 25 2 z M 15.117188 17.082031 C 16.591187 17.082031 17.691703 18.136484 17.845703 19.396484 C 17.984703 20.531484 17.530484 21.513438 16.271484 22.148438 C 15.629484 22.474438 15.310937 22.457734 15.210938 22.302734 C 15.143937 22.198734 15.181547 22.024969 15.310547 21.917969 C 16.494547 20.928969 16.515953 20.116656 16.376953 18.972656 C 16.286953 18.236656 15.802766 17.765625 15.259766 17.765625 C 12.932766 17.765625 9.5945937 22.98425 10.058594 26.78125 C 10.239594 28.26125 11.148766 29.974609 13.009766 29.974609 C 13.629766 29.974609 14.286094 29.799813 14.871094 29.507812 C 15.892094 28.985813 16.470781 28.573437 17.050781 27.898438 C 16.907781 26.142437 18.41425 23.9375 20.65625 23.9375 C 21.62625 23.9375 22.428438 24.327422 22.523438 25.107422 C 22.642437 26.080422 21.814906 26.275391 21.503906 26.275391 C 21.231906 26.275391 20.795625 26.198312 20.765625 25.945312 C 20.732625 25.672313 21.352391 25.828078 21.275391 25.205078 C 21.227391 24.816078 20.823547 24.679687 20.435547 24.679688 C 19.039547 24.679688 18.268016 26.626938 18.416016 27.835938 C 18.483016 28.381937 18.763578 28.925781 19.267578 28.925781 C 19.674578 28.925781 20.260328 28.341375 20.486328 27.484375 C 20.629328 26.900375 21.182797 26.511719 21.591797 26.511719 C 21.804797 26.511719 21.952516 26.609219 21.978516 26.824219 C 21.987516 26.902219 21.980078 26.999234 21.955078 27.115234 C 21.908078 27.368234 21.714609 28.212719 21.724609 28.386719 C 21.731609 28.538719 21.818031 28.746094 22.082031 28.746094 C 22.291031 28.746094 23.061438 28.332359 23.773438 27.693359 C 23.997438 26.537359 24.272922 25.107141 24.294922 24.994141 C 24.381922 24.525141 24.550953 24.042969 25.501953 24.042969 C 25.696953 24.042969 25.843094 24.139047 25.871094 24.373047 C 25.880094 24.450047 25.872656 24.550016 25.847656 24.666016 L 25.582031 25.867188 C 26.415031 24.756187 27.712281 23.941406 28.488281 23.941406 C 28.818281 23.941406 29.072234 24.115797 29.115234 24.466797 C 29.139234 24.661797 29.082125 24.991328 28.953125 25.361328 C 28.677125 26.120328 28.366156 27.262141 28.160156 28.244141 C 28.116156 28.453141 28.189313 28.767578 28.570312 28.767578 C 28.875312 28.767578 29.854531 28.395562 30.644531 27.351562 C 30.639531 27.203563 30.636719 27.054344 30.636719 26.902344 C 30.636719 26.084344 30.694609 25.421547 30.849609 24.935547 C 31.004609 24.428547 31.645312 23.943359 32.070312 23.943359 C 32.284312 23.943359 32.439453 24.059969 32.439453 24.292969 C 32.439453 24.370969 32.419859 24.469406 32.380859 24.566406 C 32.090859 25.423406 31.935547 26.221531 31.935547 27.019531 C 31.935547 27.467531 32.032859 28.189594 32.130859 28.558594 C 32.149859 28.636594 32.169094 28.714844 32.246094 28.714844 C 32.382094 28.714844 33.292172 27.817563 33.951172 26.726562 C 33.368172 26.356562 33.039062 25.674891 33.039062 24.837891 C 33.039062 23.435891 33.8735 22.714844 34.6875 22.714844 C 35.3275 22.714844 35.908203 23.182187 35.908203 24.117188 C 35.908203 24.702188 35.675656 25.363859 35.347656 26.005859 C 35.347656 26.005859 35.483969 26.025391 35.542969 26.025391 C 36.046969 26.025391 36.434438 25.791109 36.648438 25.537109 C 36.745438 25.427109 36.835875 25.341016 36.921875 25.291016 C 37.570875 24.507016 38.522672 23.939453 39.638672 23.939453 C 40.588672 23.939453 41.408906 24.310844 41.503906 25.089844 C 41.624906 26.082844 40.777328 26.277344 40.486328 26.277344 C 40.196328 26.277344 39.759516 26.198312 39.728516 25.945312 C 39.697516 25.692312 40.333766 25.829562 40.259766 25.226562 C 40.211766 24.836562 39.805969 24.679688 39.417969 24.679688 C 38.117969 24.679688 37.224484 26.413453 37.396484 27.814453 C 37.465484 28.379453 37.726469 28.925781 38.230469 28.925781 C 38.637469 28.925781 39.246703 28.340375 39.470703 27.484375 C 39.614703 26.919375 40.164266 26.511719 40.572266 26.511719 C 40.766266 26.511719 40.934891 26.60975 40.962891 26.84375 C 40.976891 26.96075 40.929891 27.213906 40.712891 28.128906 C 40.623891 28.517906 40.605672 28.848094 40.638672 29.121094 C 40.708672 29.686094 40.967031 30.057484 41.207031 30.271484 C 41.294031 30.348484 41.344562 30.445859 41.351562 30.505859 C 41.371562 30.658859 41.254547 30.794922 41.060547 30.794922 C 41.002547 30.794922 40.925328 30.794859 40.861328 30.755859 C 39.862328 30.346859 39.447078 29.665484 39.330078 29.021484 C 38.945078 29.508484 38.435109 29.779297 37.912109 29.779297 C 37.020109 29.779297 36.149391 29.000281 36.025391 27.988281 C 35.974391 27.572281 36.024156 27.124547 36.160156 26.685547 C 35.798156 26.909547 35.407594 27.033203 35.058594 27.033203 C 34.941594 27.033203 34.846469 27.034625 34.730469 27.015625 C 33.858469 28.280625 32.946047 29.156875 32.248047 29.546875 C 31.958047 29.702875 31.687188 29.78125 31.492188 29.78125 C 31.336188 29.78125 31.162937 29.741469 31.085938 29.605469 C 30.904937 29.301469 30.783844 28.822766 30.714844 28.259766 C 29.795844 29.266766 28.506344 29.775391 27.902344 29.775391 C 27.203344 29.775391 26.822141 29.346125 26.744141 28.703125 C 26.718141 28.457125 26.725531 28.209844 26.769531 27.964844 C 27.000531 26.523844 27.531047 25.628469 27.498047 25.355469 C 27.488047 25.277469 27.443719 25.238281 27.386719 25.238281 C 26.940719 25.238281 25.374719 26.854781 25.136719 27.925781 L 24.951172 28.783203 C 24.830172 29.387203 24.237078 29.775391 23.830078 29.775391 C 23.636078 29.775391 23.488891 29.679844 23.462891 29.464844 C 23.454891 29.366844 23.463328 29.267875 23.486328 29.171875 L 23.572266 28.720703 C 22.727266 29.352703 21.816625 29.779297 21.390625 29.779297 C 20.807625 29.779297 20.481234 29.466047 20.365234 28.998047 C 19.980234 29.505047 19.470734 29.779297 18.927734 29.779297 C 18.234734 29.779297 17.567094 29.321578 17.246094 28.642578 C 16.789094 29.155578 16.249562 29.656312 15.601562 30.070312 C 14.645563 30.675313 13.580312 31.162109 12.320312 31.162109 C 11.157312 31.162109 10.169047 30.539203 9.6230469 30.033203 C 8.8130469 29.274203 8.3838125 28.144328 8.2578125 27.111328 C 7.8598125 23.859328 9.8402031 19.593609 12.908203 17.724609 C 13.612203 17.295609 14.400188 17.082031 15.117188 17.082031 z M 34.222656 23.466797 C 33.969656 23.466797 33.873047 23.817375 33.873047 24.109375 C 33.873047 24.655375 34.145141 25.220844 34.494141 25.589844 C 34.630141 25.219844 34.707031 24.849516 34.707031 24.478516 C 34.707031 23.778516 34.435656 23.466797 34.222656 23.466797 z"/></svg>