<svg xmlns="http://www.w3.org/2000/svg" fill="none" viewBox="0 0 33 32" class="" style="width:auto;height:32px"><path stroke="currentColor" stroke-linecap="round" stroke-linejoin="round" stroke-width="2" d="M8.369 11V5.706A1.706 1.706 0 0 1 10.075 4H28.84a1.706 1.706 0 0 1 1.706 1.706V16.5a2 2 0 0 1-2 2H21.09M8.369 9.117h22.177"></path><path fill="currentColor" d="M9.59 13c-5.237 0-9.5 4.262-9.5 9.5S4.354 32 9.59 32c5.239 0 9.5-4.262 9.5-9.5S14.83 13 9.59 13Zm0 1.461c4.433 0 8.04 3.607 8.04 8.039 0 4.432-3.607 8.038-8.04 8.038-3.732 0-6.87-2.561-7.77-6.017l2.68 1.148a2.185 2.185 0 0 0 2.168 1.946c1.21 0 2.192-.981 2.192-2.192 0-.023-.006-.046-.007-.068l3.053-2.136a2.917 2.917 0 0 0 2.8-2.911 2.923 2.923 0 0 0-2.923-2.923 2.915 2.915 0 0 0-2.91 2.8l-2.137 3.053c-.023 0-.045-.007-.068-.007-.485 0-.929.162-1.292.428l-3.8-1.629c.246-4.213 3.741-7.569 8.015-7.569Zm2.193 3.654a2.192 2.192 0 1 1 0 4.385 2.192 2.192 0 0 1 0-4.385Zm0 .731a1.461 1.461 0 1 0 0 2.923 1.461 1.461 0 0 0 0-2.923Zm-5.115 5.116a1.461 1.461 0 1 1-1.328 2.066l.573.246a1.098 1.098 0 0 0 1.44-.575c.238-.557-.02-1.2-.577-1.44l-.532-.227c.135-.042.275-.07.424-.07Z"></path><circle cx="9.591" cy="22.5" r="8.5" stroke="currentColor" stroke-width="2"></circle></svg>