<svg xmlns="http://www.w3.org/2000/svg" fill="none" viewBox="0 0 33 32" class="" style="width:auto;height:32px"><g stroke="currentColor" stroke-width="2"><path stroke-linecap="round" stroke-linejoin="round" d="M31.273 18.5V5.706A1.706 1.706 0 0 0 29.567 4H10.802a1.706 1.706 0 0 0-1.706 1.706V9.97m0-.853h22.177M7.368 18.494v3.397M5.67 20.193h3.396"></path><path stroke-linecap="round" stroke-linejoin="round" d="M18.439 24.437a1.7 1.7 0 0 1 1.326.637l1.854 2.317a3.44 3.44 0 0 0 6.127-2.15v-6.747a3.395 3.395 0 0 0-3.397-3.396H5.671a3.395 3.395 0 0 0-3.399 3.396v6.748a3.44 3.44 0 0 0 6.13 2.152l1.853-2.32a1.697 1.697 0 0 1 1.326-.637h6.858Z"></path><path d="M20.953 21.891a.425.425 0 0 1 0-.85m0 .85a.425.425 0 0 0 0-.85m2.547-1.698a.425.425 0 1 1 0-.85m0 .851a.425.425 0 0 0 0-.85"></path></g></svg>