<svg xmlns="http://www.w3.org/2000/svg" fill="none" viewBox="0 0 33 32" class="" style="width:auto;height:32px"><path stroke="currentColor" stroke-linecap="round" stroke-linejoin="round" stroke-width="2" d="M8.914 9.97V5.707A1.706 1.706 0 0 1 10.62 4h18.765a1.706 1.706 0 0 1 1.706 1.706V16.5a2 2 0 0 1-2 2h-9.955M8.914 9.117h22.177M15.636 28.29a2.211 2.211 0 0 1-2.21 2.21H4.584c-1.224 0-2.948-.987-2.948-2.21v-9.58a2.21 2.21 0 0 1 2.21-2.21h9.58a2.21 2.21 0 0 1 2.21 2.21v9.58Zm-7-11.79-4.421-4.421m8.842 0-4.42 4.42m-.001.001v14m7-7h-14"></path></svg>