<svg xmlns="http://www.w3.org/2000/svg" fill="none" viewBox="0 0 33 32" class="" style="width:auto;height:32px"><g stroke="currentColor" stroke-linecap="round" stroke-linejoin="round" stroke-width="2"><path d="M20.455 16v11.36A3.64 3.64 0 0 1 16.788 31H8.095a3.64 3.64 0 0 1-3.64-3.64V9.333a3.64 3.64 0 0 1 3.64-3.666h7.36m-11 20h16"></path><path d="M14.62 11.667h-2.71a1.79 1.79 0 0 0-.667 3.449l2.752 1.1a1.789 1.789 0 0 1-.667 3.45H10.62m2-7.994v-1.005m0 9.999v-.994m10.14-7.37a5.003 5.003 0 0 0-3.533-6.12m7.939 5.59a8.584 8.584 0 0 0-6.07-10.514"></path></g></svg>