<svg xmlns="http://www.w3.org/2000/svg" fill="none" viewBox="0 0 33 32" class="" style="width:auto;height:32px"><g fill="currentColor" clip-path="url(#svg-bb677c1860d35c56a26624c0fe137940__a)"><path d="M5.157 12.855h5.291l.424-2.458H2.473L.483 21.635h3.128l.742-4.257h4.28l.426-2.458H4.794l.363-2.065Zm6.811-2.458-1.99 11.238h3.11l1.99-11.238h-3.11Zm10.786 4.523H18.49l.362-2.065h5.292l.426-2.458h-8.401l-1.99 11.238h3.127l.742-4.257h4.28l.426-2.458Zm4.423-4.54-5.889 11.252h3l.948-1.969h3.9l.252 1.97h3.095L30.667 10.38h-3.49Zm-.82 6.935 1.894-4.051h.063l.523 4.05h-2.48Z"></path></g><defs><clipPath id="svg-bb677c1860d35c56a26624c0fe137940__a"><path fill="currentColor" d="M.545 0h32v32h-32z"></path></clipPath></defs></svg>