<svg xmlns="http://www.w3.org/2000/svg" fill="none" viewBox="0 0 32 32" class="" style="width:auto;height:32px"><g stroke="currentColor" stroke-width="2"><path stroke-linecap="round" stroke-linejoin="round" d="M9 2h1.75C13.65 2 16 5.226 16 8.125V9m-8 6v4m-2-2h4"></path><path stroke-linecap="round" stroke-linejoin="round" d="M29.997 19.5v-4.773c0-1.519-.59-2.976-1.64-4.05A5.537 5.537 0 0 0 24.399 9H7.601c-1.486 0-2.91.603-3.96 1.677a5.794 5.794 0 0 0-1.64 4.05V25.7c-.022.93.255 1.84.789 2.594a4.15 4.15 0 0 0 2.165 1.572 3.9 3.9 0 0 0 2.72-.259 4.03 4.03 0 0 0 1.918-1.99l2.758-5.254h7.297l2.681 5.08a4.236 4.236 0 0 0 1.2 1.625 4.11 4.11 0 0 0 1.802.868 3.896 3.896 0 0 0 1.72-.079 3.95 3.95 0 0 0 1.526-.813 4.059 4.059 0 0 0 1.048-1.396A4.148 4.148 0 0 0 30 25.93l-.003-6.43Z"></path><path d="M22 18c-.552 0-.5-.5-.5-.5s-.052-.5.5-.5m0 1s.5 0 .5-.5-.5-.5-.5-.5m3-2s-.5 0-.5-.5.5-.5.5-.5m0 1c.552 0 .5-.5.5-.5s.052-.5-.5-.5"></path></g></svg>