<svg xmlns="http://www.w3.org/2000/svg"  viewBox="0 0 50 50" width="50px" height="50px"><path d="M24.8,20.3h-1.49v1.71h1.49c0.48,0,0.9-0.4,0.9-0.86C25.7,20.7,25.28,20.3,24.8,20.3z M24.8,16.54h-1.49v1.71h1.49 c0.48,0,0.9-0.4,0.9-0.85C25.7,16.94,25.28,16.54,24.8,16.54z M28.08,19.27c0-0.5,0.07-0.98,0.19-1.44 c-0.31,0.86-0.93,1.44-1.75,1.44c0.8,0,1.47,0.64,1.78,1.55C28.16,20.33,28.08,19.81,28.08,19.27z M33.54,16.54 c-1.53,0-2.73,1.21-2.73,2.73c0,1.53,1.2,2.74,2.73,2.74c1.53,0,2.73-1.21,2.73-2.74C36.27,17.75,35.07,16.54,33.54,16.54z M33.54,20.95c-0.94,0-1.67-0.74-1.67-1.68c0-0.93,0.73-1.67,1.67-1.67c0.93,0,1.67,0.74,1.67,1.67 C35.21,20.21,34.47,20.95,33.54,20.95z M33.54,16.54c-1.53,0-2.73,1.21-2.73,2.73c0,1.53,1.2,2.74,2.73,2.74 c1.53,0,2.73-1.21,2.73-2.74C36.27,17.75,35.07,16.54,33.54,16.54z M33.54,20.95c-0.94,0-1.67-0.74-1.67-1.68 c0-0.93,0.73-1.67,1.67-1.67c0.93,0,1.67,0.74,1.67,1.67C35.21,20.21,34.47,20.95,33.54,20.95z M28.08,19.27 c0-0.5,0.07-0.98,0.19-1.44c-0.31,0.86-0.93,1.44-1.75,1.44c0.8,0,1.47,0.64,1.78,1.55C28.16,20.33,28.08,19.81,28.08,19.27z M24.8,16.54h-1.49v1.71h1.49c0.48,0,0.9-0.4,0.9-0.85C25.7,16.94,25.28,16.54,24.8,16.54z M24.8,20.3h-1.49v1.71h1.49 c0.48,0,0.9-0.4,0.9-0.86C25.7,20.7,25.28,20.3,24.8,20.3z M24.8,20.3h-1.49v1.71h1.49c0.48,0,0.9-0.4,0.9-0.86 C25.7,20.7,25.28,20.3,24.8,20.3z M24.8,16.54h-1.49v1.71h1.49c0.48,0,0.9-0.4,0.9-0.85C25.7,16.94,25.28,16.54,24.8,16.54z M28.08,19.27c0-0.5,0.07-0.98,0.19-1.44c-0.31,0.86-0.93,1.44-1.75,1.44c0.8,0,1.47,0.64,1.78,1.55 C28.16,20.33,28.08,19.81,28.08,19.27z M33.54,16.54c-1.53,0-2.73,1.21-2.73,2.73c0,1.53,1.2,2.74,2.73,2.74 c1.53,0,2.73-1.21,2.73-2.74C36.27,17.75,35.07,16.54,33.54,16.54z M33.54,20.95c-0.94,0-1.67-0.74-1.67-1.68 c0-0.93,0.73-1.67,1.67-1.67c0.93,0,1.67,0.74,1.67,1.67C35.21,20.21,34.47,20.95,33.54,20.95z M33.54,16.54 c-1.53,0-2.73,1.21-2.73,2.73c0,1.53,1.2,2.74,2.73,2.74c1.53,0,2.73-1.21,2.73-2.74C36.27,17.75,35.07,16.54,33.54,16.54z M33.54,20.95c-0.94,0-1.67-0.74-1.67-1.68c0-0.93,0.73-1.67,1.67-1.67c0.93,0,1.67,0.74,1.67,1.67 C35.21,20.21,34.47,20.95,33.54,20.95z M28.08,19.27c0-0.5,0.07-0.98,0.19-1.44c-0.31,0.86-0.93,1.44-1.75,1.44 c0.8,0,1.47,0.64,1.78,1.55C28.16,20.33,28.08,19.81,28.08,19.27z M24.8,16.54h-1.49v1.71h1.49c0.48,0,0.9-0.4,0.9-0.85 C25.7,16.94,25.28,16.54,24.8,16.54z M24.8,20.3h-1.49v1.71h1.49c0.48,0,0.9-0.4,0.9-0.86C25.7,20.7,25.28,20.3,24.8,20.3z M24.8,20.3h-1.49v1.71h1.49c0.48,0,0.9-0.4,0.9-0.86C25.7,20.7,25.28,20.3,24.8,20.3z M24.8,16.54h-1.49v1.71h1.49 c0.48,0,0.9-0.4,0.9-0.85C25.7,16.94,25.28,16.54,24.8,16.54z M28.08,19.27c0-0.5,0.07-0.98,0.19-1.44 c-0.31,0.86-0.93,1.44-1.75,1.44c0.8,0,1.47,0.64,1.78,1.55C28.16,20.33,28.08,19.81,28.08,19.27z M26.72,27.48 c-1.52,0-2.75,1.53-2.75,3.4s1.23,3.39,2.75,3.39c1.52,0,2.76-1.52,2.76-3.39C29.48,29,28.24,27.48,26.72,27.48z M33.54,16.54 c-1.53,0-2.73,1.21-2.73,2.73c0,1.53,1.2,2.74,2.73,2.74c1.53,0,2.73-1.21,2.73-2.74C36.27,17.75,35.07,16.54,33.54,16.54z M33.54,20.95c-0.94,0-1.67-0.74-1.67-1.68c0-0.93,0.73-1.67,1.67-1.67c0.93,0,1.67,0.74,1.67,1.67 C35.21,20.21,34.47,20.95,33.54,20.95z M26.72,27.48c-1.52,0-2.75,1.53-2.75,3.4s1.23,3.39,2.75,3.39c1.52,0,2.76-1.52,2.76-3.39 C29.48,29,28.24,27.48,26.72,27.48z M33.54,16.54c-1.53,0-2.73,1.21-2.73,2.73c0,1.53,1.2,2.74,2.73,2.74 c1.53,0,2.73-1.21,2.73-2.74C36.27,17.75,35.07,16.54,33.54,16.54z M33.54,20.95c-0.94,0-1.67-0.74-1.67-1.68 c0-0.93,0.73-1.67,1.67-1.67c0.93,0,1.67,0.74,1.67,1.67C35.21,20.21,34.47,20.95,33.54,20.95z M28.27,17.83 c-0.31,0.86-0.93,1.44-1.75,1.44c0.8,0,1.47,0.64,1.78,1.55c-0.14-0.49-0.22-1.01-0.22-1.55C28.08,18.77,28.15,18.29,28.27,17.83z M24.8,16.54h-1.49v1.71h1.49c0.48,0,0.9-0.4,0.9-0.85C25.7,16.94,25.28,16.54,24.8,16.54z M24.8,20.3h-1.49v1.71h1.49 c0.48,0,0.9-0.4,0.9-0.86C25.7,20.7,25.28,20.3,24.8,20.3z M36,3.99H14c-5.51,0-10,4.49-10,10v22c0,5.51,4.49,10,10,10h22 c5.51,0,10-4.49,10-10v-22C46,8.48,41.51,3.99,36,3.99z M20.58,13.81h4.62c1.98,0,3.3,1.22,3.3,2.73c0,0.33-0.05,0.65-0.12,0.94 c0.74-2.14,2.76-3.67,5.16-3.67c3.03,0,5.46,2.43,5.46,5.46c0,3.04-2.43,5.47-5.46,5.47c-2.42,0-4.46-1.55-5.18-3.72 c0.09,0.3,0.14,0.64,0.14,0.99c0,1.51-1.32,2.73-3.3,2.73h-1.98v-0.01h-2.64V13.81z M12.39,13.81h2.73v4.1h2.04v-4.1h2.74v10.93 h-2.74v-4.1h-2.04v4.1h-2.73V13.81z M21.45,36h-0.96c-0.53,0-0.96-0.43-0.96-0.96v-5.38c0-1.06-0.86-1.92-1.92-1.92 s-1.92,0.86-1.92,1.92V36h-0.96c-0.53,0-0.95-0.43-0.95-0.96v-5.38c0-1.06-0.87-1.92-1.93-1.92s-1.92,0.86-1.92,1.92V36H8.97 c-0.52,0-0.95-0.43-0.95-0.96v-5.22c0-1.86,1.25-3.56,3.07-3.92c1.46-0.28,2.8,0.28,3.65,1.27c0.54-0.63,1.25-1.1,2.11-1.27 c0.3-0.06,0.6-0.08,0.9-0.07c2.05,0.07,3.7,1.76,3.7,3.83V36z M31.77,36h-0.95c-0.53,0-0.96-0.43-0.96-0.96v-0.25 c-0.83,0.87-1.93,1.4-3.14,1.4c-2.57,0-4.67-2.38-4.67-5.31s2.1-5.31,4.67-5.31c1.21,0,2.31,0.53,3.14,1.39v-0.25 c0-0.52,0.43-0.95,0.96-0.95h0.95V36z M38.76,31.76l3.07,4.17h-1.68c-0.43,0-0.84-0.21-1.1-0.55L37.3,33 c-0.16-0.22-0.5-0.22-0.66,0l-1.75,2.38c-0.26,0.34-0.67,0.55-1.1,0.55H32.1l3.08-4.17c0.36-0.49,0.36-1.14,0-1.63l-3.22-4.37 h1.68c0.44,0,0.84,0.2,1.1,0.55l1.9,2.58c0.16,0.22,0.5,0.22,0.66,0l1.9-2.58c0.26-0.34,0.66-0.55,1.1-0.55h1.68l-3.23,4.37 C38.4,30.62,38.4,31.27,38.76,31.76z M33.54,22.01c1.53,0,2.73-1.21,2.73-2.74c0-1.52-1.2-2.73-2.73-2.73 c-1.53,0-2.73,1.21-2.73,2.73C30.81,20.8,32.01,22.01,33.54,22.01z M33.54,17.6c0.93,0,1.67,0.74,1.67,1.67 c0,0.94-0.74,1.68-1.67,1.68c-0.94,0-1.67-0.74-1.67-1.68C31.87,18.34,32.6,17.6,33.54,17.6z M26.72,27.48 c-1.52,0-2.75,1.53-2.75,3.4s1.23,3.39,2.75,3.39c1.52,0,2.76-1.52,2.76-3.39C29.48,29,28.24,27.48,26.72,27.48z M28.3,20.82 c-0.14-0.49-0.22-1.01-0.22-1.55c0-0.5,0.07-0.98,0.19-1.44c-0.31,0.86-0.93,1.44-1.75,1.44C27.32,19.27,27.99,19.91,28.3,20.82z M25.7,17.4c0-0.46-0.42-0.86-0.9-0.86h-1.49v1.71h1.49C25.28,18.25,25.7,17.85,25.7,17.4z M25.7,21.15c0-0.45-0.42-0.85-0.9-0.85 h-1.49v1.71h1.49C25.28,22.01,25.7,21.61,25.7,21.15z M24.8,20.3h-1.49v1.71h1.49c0.48,0,0.9-0.4,0.9-0.86 C25.7,20.7,25.28,20.3,24.8,20.3z M24.8,16.54h-1.49v1.71h1.49c0.48,0,0.9-0.4,0.9-0.85C25.7,16.94,25.28,16.54,24.8,16.54z M28.08,19.27c0-0.5,0.07-0.98,0.19-1.44c-0.31,0.86-0.93,1.44-1.75,1.44c0.8,0,1.47,0.64,1.78,1.55 C28.16,20.33,28.08,19.81,28.08,19.27z M33.54,16.54c-1.53,0-2.73,1.21-2.73,2.73c0,1.53,1.2,2.74,2.73,2.74 c1.53,0,2.73-1.21,2.73-2.74C36.27,17.75,35.07,16.54,33.54,16.54z M33.54,20.95c-0.94,0-1.67-0.74-1.67-1.68 c0-0.93,0.73-1.67,1.67-1.67c0.93,0,1.67,0.74,1.67,1.67C35.21,20.21,34.47,20.95,33.54,20.95z M33.54,16.54 c-1.53,0-2.73,1.21-2.73,2.73c0,1.53,1.2,2.74,2.73,2.74c1.53,0,2.73-1.21,2.73-2.74C36.27,17.75,35.07,16.54,33.54,16.54z M33.54,20.95c-0.94,0-1.67-0.74-1.67-1.68c0-0.93,0.73-1.67,1.67-1.67c0.93,0,1.67,0.74,1.67,1.67 C35.21,20.21,34.47,20.95,33.54,20.95z M28.08,19.27c0-0.5,0.07-0.98,0.19-1.44c-0.31,0.86-0.93,1.44-1.75,1.44 c0.8,0,1.47,0.64,1.78,1.55C28.16,20.33,28.08,19.81,28.08,19.27z M24.8,16.54h-1.49v1.71h1.49c0.48,0,0.9-0.4,0.9-0.85 C25.7,16.94,25.28,16.54,24.8,16.54z M24.8,20.3h-1.49v1.71h1.49c0.48,0,0.9-0.4,0.9-0.86C25.7,20.7,25.28,20.3,24.8,20.3z M24.8,20.3h-1.49v1.71h1.49c0.48,0,0.9-0.4,0.9-0.86C25.7,20.7,25.28,20.3,24.8,20.3z M24.8,16.54h-1.49v1.71h1.49 c0.48,0,0.9-0.4,0.9-0.85C25.7,16.94,25.28,16.54,24.8,16.54z M28.08,19.27c0-0.5,0.07-0.98,0.19-1.44 c-0.31,0.86-0.93,1.44-1.75,1.44c0.8,0,1.47,0.64,1.78,1.55C28.16,20.33,28.08,19.81,28.08,19.27z M33.54,16.54 c-1.53,0-2.73,1.21-2.73,2.73c0,1.53,1.2,2.74,2.73,2.74c1.53,0,2.73-1.21,2.73-2.74C36.27,17.75,35.07,16.54,33.54,16.54z M33.54,20.95c-0.94,0-1.67-0.74-1.67-1.68c0-0.93,0.73-1.67,1.67-1.67c0.93,0,1.67,0.74,1.67,1.67 C35.21,20.21,34.47,20.95,33.54,20.95z M33.54,16.54c-1.53,0-2.73,1.21-2.73,2.73c0,1.53,1.2,2.74,2.73,2.74 c1.53,0,2.73-1.21,2.73-2.74C36.27,17.75,35.07,16.54,33.54,16.54z M33.54,20.95c-0.94,0-1.67-0.74-1.67-1.68 c0-0.93,0.73-1.67,1.67-1.67c0.93,0,1.67,0.74,1.67,1.67C35.21,20.21,34.47,20.95,33.54,20.95z M28.08,19.27 c0-0.5,0.07-0.98,0.19-1.44c-0.31,0.86-0.93,1.44-1.75,1.44c0.8,0,1.47,0.64,1.78,1.55C28.16,20.33,28.08,19.81,28.08,19.27z M24.8,16.54h-1.49v1.71h1.49c0.48,0,0.9-0.4,0.9-0.85C25.7,16.94,25.28,16.54,24.8,16.54z M24.8,20.3h-1.49v1.71h1.49 c0.48,0,0.9-0.4,0.9-0.86C25.7,20.7,25.28,20.3,24.8,20.3z"/></svg>