<svg xmlns="http://www.w3.org/2000/svg" fill="none" viewBox="0 0 32 32" class="" style="width:auto;height:32px"><g stroke="currentColor" stroke-width="2" clip-path="url(#svg-7e5364e445cfd2fdc4281d130bebaec0__a)"><path stroke-linecap="round" stroke-linejoin="round" d="M19.875 19.875v6.781A3.875 3.875 0 0 1 16 30.531H6.312a3.875 3.875 0 0 1-3.875-3.875V5.344a3.875 3.875 0 0 1 3.876-3.875H16a3.875 3.875 0 0 1 3.358 1.937M2.438 24.719h17.437"></path><path stroke-linecap="round" stroke-linejoin="round" d="M18.422 15.969a5.813 5.813 0 1 1 0-7.688l-5.085 3.844 5.085 3.844Z"></path><path d="M23.266 13.094a.485.485 0 0 1 0-.969M23.266 13.094a.484.484 0 1 0 0-.969M28.11 13.094a.484.484 0 1 1 0-.969M28.11 13.094a.485.485 0 0 0 0-.969"></path></g><defs><clipPath id="svg-7e5364e445cfd2fdc4281d130bebaec0__a"><path fill="currentColor" d="M.5.5h31v31H.5z"></path></clipPath></defs></svg>