<svg xmlns="http://www.w3.org/2000/svg" fill="none" viewBox="0 0 34 32" class="" style="width:auto;height:32px"><path fill="currentColor" fill-rule="evenodd" d="M33.029 22.384c-.625.79-2.157 1.355-2.157 1.355L19.48 27.84v-3.024l8.384-2.995c.951-.341 1.098-.824.324-1.078-.772-.254-2.17-.181-3.122.162l-5.586 1.972v-3.14l.322-.108s1.614-.573 3.884-.825c2.27-.25 5.05.034 7.231.863 2.46.779 2.736 1.927 2.112 2.717Zm-12.465-5.15V9.499c0-.909-.167-1.745-1.017-1.982-.652-.21-1.056.397-1.056 1.305v19.37l-5.212-1.657V3.438c2.216.412 5.445 1.387 7.18 1.974 4.415 1.519 5.911 3.41 5.911 7.669 0 4.151-2.557 5.725-5.806 4.153ZM3.715 24.499c-2.524-.712-2.944-2.197-1.793-3.052 1.063-.79 2.871-1.384 2.871-1.384l7.474-2.664v3.037l-5.378 1.929c-.95.341-1.096.825-.324 1.079.772.253 2.17.181 3.122-.161l2.58-.939v2.717c-.164.03-.346.058-.515.087-2.58.422-5.328.246-8.037-.649Zm27.654 1.203a1.2 1.2 0 0 1 .862.36c.231.23.358.538.358.865 0 .328-.127.634-.358.864-.23.232-.536.359-.862.359-.327 0-.632-.127-.863-.36a1.224 1.224 0 0 1 .863-2.089Zm-1.015 1.225c0 .271.105.527.297.718a1 1 0 0 0 .718.299 1.016 1.016 0 0 0 .717-1.737 1 1 0 0 0-.717-.298 1 1 0 0 0-.718.298 1.01 1.01 0 0 0-.297.72Zm1.383-.66c.134.06.202.173.202.335a.375.375 0 0 1-.053.207.362.362 0 0 1-.103.1.3.3 0 0 1 .081.067c.03.038.046.099.049.18l.006.175a.448.448 0 0 0 .012.104c.008.032.021.053.039.06l.018.008v.08h-.263l-.009-.016a.246.246 0 0 1-.017-.053.818.818 0 0 1-.01-.107l-.01-.216c-.003-.075-.029-.121-.077-.146a.378.378 0 0 0-.146-.02h-.37v.557h-.236v-1.361h.63a.61.61 0 0 1 .257.046Zm-.651.549h.377a.324.324 0 0 0 .178-.042c.04-.029.059-.08.059-.155 0-.082-.027-.135-.084-.164a.3.3 0 0 0-.13-.024h-.4v.385Z" clip-rule="evenodd"></path></svg>