<svg xmlns="http://www.w3.org/2000/svg" fill="none" viewBox="0 0 32 32" class="" style="width:auto;height:32px"><path fill="currentColor" fill-rule="evenodd" d="M2 14.21C2 6.366 8.366 0 16.21 0c7.844 0 14.21 6.366 14.21 14.21 0 7.844-6.366 14.21-14.21 14.21C8.366 28.42 2 22.054 2 14.21Zm22.558-1.65c.258.149.442.223.74.223.699 0 1.329-.556 1.329-1.335 0-.682-.292-1.037-.74-1.295-3.202-1.868-7.586-2.739-11.768-2.739-2.458 0-4.716.281-6.733.871-.516.15-.997.59-.997 1.37 0 .762.579 1.352 1.335 1.352.23 0 .447-.064.632-.118l.107-.031c4.722-1.318 12.016-.733 16.095 1.702Zm-1.665 4.39c.18.098.367.2.628.2a1.11 1.11 0 0 0 1.112-1.118c0-.498-.183-.854-.648-1.129-2.83-1.684-6.423-2.607-10.141-2.607-2.384 0-4.011.333-5.604.78-.59.166-.888.572-.888 1.186 0 .613.498 1.111 1.111 1.111.19 0 .32-.04.486-.091.06-.018.123-.038.196-.058 4.75-1.289 10.09-.435 13.672 1.685l.076.04Zm-1.526 3.752c.223.132.372.206.613.206.464 0 .87-.36.87-.882s-.205-.722-.555-.946c-4.091-2.446-8.887-2.538-13.58-1.5-.43.09-.779.372-.779.962 0 .464.35.905.905.905.13 0 .34-.056.53-.108.053-.015.104-.029.152-.04 4.109-.843 8.268-.752 11.844 1.403Z" clip-rule="evenodd"></path></svg>