<svg xmlns="http://www.w3.org/2000/svg" fill="none" viewBox="0 0 33 32" class="" style="width:auto;height:32px"><path fill="currentColor" d="M16.26 1.778c-7.835 0-14.21 6.374-14.21 14.209 0 7.834 6.375 14.208 14.21 14.208 7.834 0 14.208-6.374 14.208-14.208 0-7.835-6.374-14.21-14.209-14.21Zm0 2.186c6.628 0 12.022 5.394 12.022 12.023S22.888 28.009 16.26 28.009c-5.583 0-10.276-3.831-11.621-9l4.007 1.717a3.268 3.268 0 0 0 3.242 2.912 3.279 3.279 0 0 0 3.28-3.28c0-.034-.01-.068-.011-.102l4.566-3.194a4.363 4.363 0 0 0 4.188-4.354 4.372 4.372 0 0 0-4.372-4.372 4.36 4.36 0 0 0-4.353 4.188L11.99 17.09c-.035 0-.068-.01-.103-.01-.725 0-1.389.242-1.932.64l-5.682-2.436c.366-6.301 5.594-11.32 11.986-11.32Zm3.278 5.465a3.279 3.279 0 1 1 0 6.557 3.279 3.279 0 0 1 0-6.557Zm0 1.093a2.186 2.186 0 1 0 0 4.372 2.186 2.186 0 0 0 0-4.372Zm-7.65 7.65a2.185 2.185 0 1 1 0 4.372 2.181 2.181 0 0 1-1.986-1.28l.856.367a1.643 1.643 0 0 0 2.154-.86 1.639 1.639 0 0 0-.863-2.152l-.796-.342a2.16 2.16 0 0 1 .634-.104Z"></path></svg>