<svg xmlns="http://www.w3.org/2000/svg" fill="none" viewBox="0 0 33 32" class="" style="width:auto;height:32px"><path fill="currentColor" d="M15.297 30.137c-2.19-.21-4.405-.995-6.31-2.237-1.595-1.04-1.955-1.468-1.955-2.321 0-1.714 1.886-4.717 5.113-8.14 1.832-1.944 4.385-4.222 4.661-4.16.537.12 4.827 4.302 6.433 6.271 2.54 3.114 3.708 5.663 3.115 6.8-.451.864-3.25 2.552-5.305 3.201-1.694.535-3.92.762-5.752.586Zm-10.42-6.34c-1.325-2.033-1.995-4.034-2.318-6.928-.107-.956-.069-1.503.242-3.464.388-2.445 1.78-5.274 3.455-7.015.713-.74.776-.759 1.645-.466 1.056.355 2.183 1.133 3.93 2.712l1.02.922-.557.684c-2.585 3.174-5.313 7.673-6.342 10.456-.559 1.513-.784 3.032-.544 3.665.163.427.013.268-.53-.566Zm23.27.345c.132-.639-.034-1.812-.422-2.996-.841-2.563-3.651-7.332-6.232-10.574l-.812-1.02.879-.807c1.147-1.053 1.944-1.683 2.804-2.219.678-.423 1.647-.797 2.064-.797.257 0 1.161.938 1.892 1.962 1.13 1.586 1.962 3.508 2.384 5.509.272 1.293.295 4.06.043 5.35-.206 1.058-.64 2.43-1.065 3.362-.318.698-1.11 2.052-1.456 2.493-.179.227-.179.226-.078-.263ZM15.532 5.245c-1.19-.604-3.027-1.253-4.042-1.427a7.408 7.408 0 0 0-1.348-.076c-.837.042-.8-.002.543-.636 1.116-.527 2.048-.837 3.312-1.102 1.422-.299 4.096-.302 5.495-.007 1.512.318 3.292.98 4.295 1.597l.298.183-.684-.034c-1.359-.069-3.34.48-5.467 1.514-.641.312-1.2.562-1.24.554-.04-.007-.563-.262-1.162-.566Z"></path></svg>