<svg xmlns="http://www.w3.org/2000/svg" width="26.95" height="32" viewBox="0 0 26.95 32"><path fill="#fff" d="M26.39 24.94a17.4 17.4 0 01-1.72 3.09 15.72 15.72 0 01-2.22 2.68 4.3 4.3 0 01-2.85 1.25 7.14 7.14 0 01-2.63-.63 7.55 7.55 0 00-2.83-.62 7.8 7.8 0 00-2.92.62 7.84 7.84 0 01-2.5.67 4.05 4.05 0 01-2.92-1.3 16.5 16.5 0 01-2.32-2.76 19.18 19.18 0 01-2.45-4.87A17.83 17.83 0 010 17.27a10.6 10.6 0 011.4-5.55 8.16 8.16 0 012.9-2.95 7.84 7.84 0 013.95-1.11 9.28 9.28 0 013.04.7 9.8 9.8 0 002.42.72 14.46 14.46 0 002.68-.84 8.86 8.86 0 013.64-.64 7.74 7.74 0 016.06 3.19 6.74 6.74 0 00-3.57 6.12A6.75 6.75 0 0024.74 22a7.29 7.29 0 002.21 1.45q-.26.78-.56 1.49zM20.2.64a6.83 6.83 0 01-1.75 4.48 5.96 5.96 0 01-4.95 2.44 4.98 4.98 0 01-.03-.6 7.01 7.01 0 011.85-4.53A7.15 7.15 0 0117.6.73 6.74 6.74 0 0120.2 0a5.81 5.81 0 01.02.64z"/></svg>
