<svg xmlns="http://www.w3.org/2000/svg" version="1.1" width="640px" height="480px" style="shape-rendering:geometricPrecision; text-rendering:geometricPrecision; image-rendering:optimizeQuality; fill-rule:evenodd; clip-rule:evenodd" xmlns:xlink="http://www.w3.org/1999/xlink">
<g><path style="opacity:0.998" fill="#35a753" d="M 401.5,142.5 C 401.649,143.552 401.483,144.552 401,145.5C 371.135,174.363 341.469,203.696 312,233.5C 311.536,234.094 311.369,234.761 311.5,235.5C 309.264,236.389 307.264,237.722 305.5,239.5C 243.054,178.058 180.387,116.391 117.5,54.5C 124.177,33.4719 138.51,21.3052 160.5,18C 171.824,16.664 182.49,18.664 192.5,24C 262.035,63.6953 331.702,103.195 401.5,142.5 Z"/></g>
<g><path style="opacity:1" fill="#4284f3" d="M 117.5,54.5 C 180.387,116.391 243.054,178.058 305.5,239.5C 307.264,237.722 309.264,236.389 311.5,235.5C 310.167,237.167 308.833,238.833 307.5,240.5C 245.007,302.16 182.34,363.66 119.5,425C 118.906,425.464 118.239,425.631 117.5,425.5C 116.168,301.827 116.168,178.16 117.5,54.5 Z"/></g>
<g><path style="opacity:1" fill="#fabb04" d="M 401.5,142.5 C 434.04,161.538 466.707,180.371 499.5,199C 526.692,223.54 528.358,249.54 504.5,277C 471.089,297.194 437.089,316.361 402.5,334.5C 395.426,325.922 387.76,317.755 379.5,310C 355.684,286.685 331.684,263.518 307.5,240.5C 308.833,238.833 310.167,237.167 311.5,235.5C 311.369,234.761 311.536,234.094 312,233.5C 341.469,203.696 371.135,174.363 401,145.5C 401.483,144.552 401.649,143.552 401.5,142.5 Z"/></g>
<g><path style="opacity:1" fill="#e94335" d="M 307.5,240.5 C 331.684,263.518 355.684,286.685 379.5,310C 387.76,317.755 395.426,325.922 402.5,334.5C 332.597,373.862 262.93,413.696 193.5,454C 167.896,466.679 145.396,462.513 126,441.5C 122.467,436.486 119.633,431.153 117.5,425.5C 118.239,425.631 118.906,425.464 119.5,425C 182.34,363.66 245.007,302.16 307.5,240.5 Z"/></g>
</svg>
